<?xml version="1.0" encoding="UTF-8" standalone="no"?>
<!-- Generator: Adobe Illustrator 18.1.1, SVG Export Plug-In . SVG Version: 6.00 Build 0)  -->

<svg
   xmlns:dc="http://purl.org/dc/elements/1.1/"
   xmlns:cc="http://creativecommons.org/ns#"
   xmlns:rdf="http://www.w3.org/1999/02/22-rdf-syntax-ns#"
   xmlns:svg="http://www.w3.org/2000/svg"
   xmlns="http://www.w3.org/2000/svg"
   xmlns:sodipodi="http://sodipodi.sourceforge.net/DTD/sodipodi-0.dtd"
   xmlns:inkscape="http://www.inkscape.org/namespaces/inkscape"
   version="1.1"
   id="Capa_1"
   x="0px"
   y="0px"
   viewBox="0 0 25.685 25.685"
   style="enable-background:new 0 0 25.685 25.685;"
   xml:space="preserve"
   inkscape:version="0.48.4 r9939"
   width="100%"
   height="100%"
   sodipodi:docname="newsong.svg"
   inkscape:export-filename="C:\Users\Nicolas_\Dropbox\PHP\www\ProjetTut\musicsession_app\Ressources\public\images\app\NewSong.png"
   inkscape:export-xdpi="84.095779"
   inkscape:export-ydpi="84.095779"><metadata
   id="metadata41"><rdf:RDF><cc:Work
       rdf:about=""><dc:format>image/svg+xml</dc:format><dc:type
         rdf:resource="http://purl.org/dc/dcmitype/StillImage" /><dc:title></dc:title></cc:Work></rdf:RDF></metadata><defs
   id="defs39" /><sodipodi:namedview
   pagecolor="#ffffff"
   bordercolor="#666666"
   borderopacity="1"
   objecttolerance="10"
   gridtolerance="10"
   guidetolerance="10"
   inkscape:pageopacity="0"
   inkscape:pageshadow="2"
   inkscape:window-width="1440"
   inkscape:window-height="838"
   id="namedview37"
   showgrid="false"
   inkscape:zoom="9.1882422"
   inkscape:cx="12.8425"
   inkscape:cy="12.8425"
   inkscape:window-x="-8"
   inkscape:window-y="-8"
   inkscape:window-maximized="1"
   inkscape:current-layer="Capa_1" />
<g
   id="g3"
   style="fill:#ffffcf;fill-opacity:0.94117647">
	<path
   style="fill:#ffffcf;fill-opacity:0.94117647"
   d="M22.08,0.098L10.97,3.497C9.624,3.881,8.533,5.285,8.533,6.631v11.557c0,0,0,0.158,0,0.162   c0,0-0.805-0.543-2.598-0.289c-2.633,0.374-4.768,2.395-4.768,4.515s2.135,3.419,4.768,3.045c2.635-0.372,4.566-2.331,4.566-4.452   c0,0,0-9.066,0-10.006s1.13-1.343,1.13-1.343l9.823-3.079c0,0,1.087-0.365,1.087,0.641s0,8.031,0,8.031s0,0.002,0,0.006   c0,0-1.001-0.576-2.794-0.358c-2.633,0.319-4.768,2.298-4.768,4.417c0,2.121,2.135,3.463,4.768,3.143   c2.635-0.319,4.77-2.297,4.77-4.418V1.84C24.517,0.494,23.425-0.286,22.08,0.098z"
   id="path5" />
</g>
<g
   id="g7">
</g>
<g
   id="g9">
</g>
<g
   id="g11">
</g>
<g
   id="g13">
</g>
<g
   id="g15">
</g>
<g
   id="g17">
</g>
<g
   id="g19">
</g>
<g
   id="g21">
</g>
<g
   id="g23">
</g>
<g
   id="g25">
</g>
<g
   id="g27">
</g>
<g
   id="g29">
</g>
<g
   id="g31">
</g>
<g
   id="g33">
</g>
<g
   id="g35">
</g>
</svg>