<svg xmlns:xlink="http://www.w3.org/1999/xlink" height="1000" width="1000" version="1.1" xmlns="http://www.w3.org/2000/svg" id="SvgjsSvg1000"><text y="35" x="450" text-anchor="middle" font-size="40" font-family="Arial" id="SvgjsText1006"><tspan x="450" dy="52" id="SvgjsTspan1007">Test</tspan></text><text y="93.60000038146973" x="900" text-anchor="middle" font-size="18" font-family="Arial" id="SvgjsText1008"><tspan x="900" dy="23.400000000000002" id="SvgjsTspan1009">test</tspan></text><g id="staff_0"><line stroke-width="2" stroke="#000000" y2="200" x2="1000" y1="200" x1="0" id="line_0"></line><line stroke-width="2" stroke="#000000" y2="210" x2="1000" y1="210" x1="0" id="line_1"></line><line stroke-width="2" stroke="#000000" y2="220" x2="1000" y1="220" x1="0" id="line_2"></line><line stroke-width="2" stroke="#000000" y2="230" x2="1000" y1="230" x1="0" id="line_3"></line><line stroke-width="2" stroke="#000000" y2="240" x2="1000" y1="240" x1="0" id="line_4"></line></g><g id="key_0"><path d="M24.493924197126034 229.0540839883306C19.128773266467363 228.59630418796414 16.279576592487217 221.74063012344487 18.93114391455299 217.2925682925065C21.73883691773557 210.63413932153534 31.72594542627064 208.5013320956698 36.704811216124995 213.95723204383256C40.7020927765455 217.86735853264537 41.044482049860164 224.55047045279198 37.83128345308131 229.0474611823705C33.67418055019772 235.50426752820908 24.360699561192007 236.7573566640949 17.966052656958254 233.0544320812036C12.935210272205609 230.37698006075803 9.58608592921206 224.77613559648955 10.04140195534768 219.03424947560035C10.31508809311407 212.05534149267046 14.692190212412015 206.00731447101938 19.85086254701514 201.63581800318258C24.127741043012804 197.41940745853023 28.97576309190856 193.5279438711544 31.979118948307473 188.24337041300993C33.10288630774426 185.51072645927766 35.007285840003874 179.9181718041759 31.116391105699677 178.75632896132703C27.947924703442936 179.62051472538334 27.191229566496304 183.32517412178126 25.642909453659968 185.80190200356833C23.85497787877324 189.17902069871732 23.187008752049394 193.18813892371492 24.314279643649343 196.8850660623011C26.812215196740283 212.70363056345838 28.975122661298087 228.57558437409585 31.00965769360596 244.4585498239946C31.332690893528763 248.83502658163758 28.03467668048995 253.45171002507476 23.43209777943872 253.55252133764105C19.330885632655054 253.95650496672775 14.463759915372748 250.65046653486354 15.170670990452322 246.1542367875398C15.76943593885619 242.45660894252097 21.34614747082651 240.60637477095187 23.555972128459814 243.97698367730737C26.593850962002136 246.77793332288553 22.78654372408141 250.8201881811168 21.867329901629887 252.27758975069918C24.4109997347864 253.72630406741249 27.313039468608338 251.46333873806537 28.70191496287009 249.3636756799113C30.098656451924 246.49033477191628 29.49668935046776 243.11816622866235 29.397076019866915 240.02701110280645C28.264749493683098 227.19437144372648 26.104117441411915 214.48015870623976 24.37199374336967 201.72098773989777C23.646785189024968 196.5443984171569 20.95174769746359 191.4979671978976 22.08493315411323 186.18344419061626C22.842336531970318 182.66806406114378 24.90097435866528 179.54035541638538 27.225790216028543 176.85781762344487C29.452009897289997 173.82996717981484 34.376642516153936 174.60332481435046 35.13548497926513 178.44804261802005C37.16708156524254 185.46939043061047 34.06845977191631 192.73387772446716 29.746434685119084 198.2142006823223C25.474762513260657 204.03125452068667 19.824838460796627 208.7102066556563 15.820700525605162 214.72550767311216C11.170405776834798 220.9781861799595 14.560204998071185 231.4594057406693 22.310764056321716 233.239629544797C27.116186167904345 234.83735322837305 33.67717173787253 232.943856085447 35.08628483942522 227.6002537612113C36.50514002073487 223.44686535586845 35.098016021313526 217.77298919857267 30.533478698524448 216.3155537238403C25.880787985823133 214.71678274785418 20.43364686806831 218.83528652112065 20.85225491850707 223.7866326309191C20.997700477384512 226.0506603216318 22.77201725094028 227.78841227456843 24.493924197126034 229.0540839883306z " id="SvgjsPath1017"></path></g><g id="time_0"><text y="221" x="70" text-anchor="middle" font-size="28" font-family="Arial" id="SvgjsText1019"><tspan x="70" dy="0" id="SvgjsTspan1020">4</tspan></text><text y="241" x="70" text-anchor="middle" font-size="28" font-family="Arial" id="SvgjsText1021"><tspan x="70" dy="0" id="SvgjsTspan1022">4</tspan></text></g><g id="note_0"><ellipse cy="215" cx="100" ry="5.5" rx="5.5" id="SvgjsEllipse1024"></ellipse><line stroke-width="2" stroke="#000000" y2="185" x2="105" y1="215" x1="105" id="SvgjsLine1025"></line></g><g id="note_1"><ellipse cy="180" cx="120" ry="5.5" rx="5.5" id="SvgjsEllipse1027"></ellipse><line stroke-width="2" stroke="#000000" y2="150" x2="125" y1="180" x1="125" id="SvgjsLine1028"></line><line stroke-width="2" stroke="#000000" y2="190" x2="127" y1="190" x1="113" id="SvgjsLine1029"></line><line stroke-width="2" stroke="#000000" y2="180" x2="127" y1="180" x1="113" id="SvgjsLine1030"></line></g><g id="note_2"><ellipse cy="165" cx="140" ry="5.5" rx="5.5" id="SvgjsEllipse1032"></ellipse><line stroke-width="2" stroke="#000000" y2="135" x2="145" y1="165" x1="145" id="SvgjsLine1033"></line><line stroke-width="2" stroke="#000000" y2="190" x2="147" y1="190" x1="133" id="SvgjsLine1034"></line><line stroke-width="2" stroke="#000000" y2="180" x2="147" y1="180" x1="133" id="SvgjsLine1035"></line><line stroke-width="2" stroke="#000000" y2="170" x2="147" y1="170" x1="133" id="SvgjsLine1036"></line></g><g id="note_3"><ellipse cy="280" cx="160" ry="5.5" rx="5.5" id="SvgjsEllipse1038"></ellipse><line stroke-width="2" stroke="#000000" y2="250" x2="165" y1="280" x1="165" id="SvgjsLine1039"></line><line stroke-width="2" stroke="#000000" y2="250" x2="167" y1="250" x1="153" id="SvgjsLine1040"></line><line stroke-width="2" stroke="#000000" y2="260" x2="167" y1="260" x1="153" id="SvgjsLine1041"></line><line stroke-width="2" stroke="#000000" y2="270" x2="167" y1="270" x1="153" id="SvgjsLine1042"></line><line stroke-width="2" stroke="#000000" y2="280" x2="167" y1="280" x1="153" id="SvgjsLine1043"></line></g><g id="bar_1"><line stroke-width="2" stroke="#000000" y2="240" x2="170" y1="200" x1="170" id="SvgjsLine1045"></line></g><g id="note_4"><ellipse cy="260" cx="180" ry="5.5" rx="5.5" id="SvgjsEllipse1047"></ellipse><line stroke-width="2" stroke="#000000" y2="230" x2="185" y1="260" x1="185" id="SvgjsLine1048"></line><line stroke-width="2" stroke="#000000" y2="250" x2="187" y1="250" x1="173" id="SvgjsLine1049"></line><line stroke-width="2" stroke="#000000" y2="260" x2="187" y1="260" x1="173" id="SvgjsLine1050"></line></g><g id="note_5"><ellipse cy="215" cx="200" ry="5.5" rx="5.5" id="SvgjsEllipse1052"></ellipse><line stroke-width="2" stroke="#000000" y2="185" x2="205" y1="215" x1="205" id="SvgjsLine1053"></line></g><g id="note_6"><ellipse cy="180" cx="220" ry="5.5" rx="5.5" id="SvgjsEllipse1055"></ellipse><line stroke-width="2" stroke="#000000" y2="150" x2="225" y1="180" x1="225" id="SvgjsLine1056"></line><line stroke-width="2" stroke="#000000" y2="190" x2="227" y1="190" x1="213" id="SvgjsLine1057"></line><line stroke-width="2" stroke="#000000" y2="180" x2="227" y1="180" x1="213" id="SvgjsLine1058"></line></g><g id="note_7"><ellipse cy="185" cx="240" ry="5.5" rx="5.5" id="SvgjsEllipse1060"></ellipse><line stroke-width="2" stroke="#000000" y2="155" x2="245" y1="185" x1="245" id="SvgjsLine1061"></line><line stroke-width="2" stroke="#000000" y2="190" x2="247" y1="190" x1="233" id="SvgjsLine1062"></line></g><g id="bar_2"><line stroke-width="2" stroke="#000000" y2="240" x2="250" y1="200" x1="250" id="SvgjsLine1064"></line></g><g id="note_8"><ellipse cy="190" cx="260" ry="5.5" rx="5.5" id="SvgjsEllipse1066"></ellipse><line stroke-width="2" stroke="#000000" y2="160" x2="265" y1="190" x1="265" id="SvgjsLine1067"></line><line stroke-width="2" stroke="#000000" y2="190" x2="267" y1="190" x1="253" id="SvgjsLine1068"></line></g><g id="note_9"><ellipse cy="245" cx="280" ry="5.5" rx="5.5" id="SvgjsEllipse1070"></ellipse><line stroke-width="2" stroke="#000000" y2="215" x2="285" y1="245" x1="285" id="SvgjsLine1071"></line></g><g id="note_10"><ellipse cy="225" cx="300" ry="5.5" rx="5.5" id="SvgjsEllipse1073"></ellipse><line stroke-width="2" stroke="#000000" y2="195" x2="305" y1="225" x1="305" id="SvgjsLine1074"></line></g><g id="note_11"><ellipse cy="215" cx="320" ry="5.5" rx="5.5" id="SvgjsEllipse1081"></ellipse><line stroke-width="2" stroke="#000000" y2="185" x2="325" y1="215" x1="325" id="SvgjsLine1082"></line></g><g id="bar_3"><line stroke-width="2" stroke="#000000" y2="240" x2="330" y1="200" x1="330" id="SvgjsLine1084"></line></g><g id="note_12"><ellipse cy="210" cx="340" ry="5.5" rx="5.5" id="SvgjsEllipse1086"></ellipse><line stroke-width="2" stroke="#000000" y2="180" x2="345" y1="210" x1="345" id="SvgjsLine1087"></line></g><g id="note_13"><ellipse cy="185" cx="360" ry="5.5" rx="5.5" id="SvgjsEllipse1089"></ellipse><line stroke-width="2" stroke="#000000" y2="155" x2="365" y1="185" x1="365" id="SvgjsLine1090"></line><line stroke-width="2" stroke="#000000" y2="190" x2="367" y1="190" x1="353" id="SvgjsLine1091"></line></g><g id="note_14"><ellipse cy="190" cx="380" ry="5.5" rx="5.5" id="SvgjsEllipse1093"></ellipse><line stroke-width="2" stroke="#000000" y2="160" x2="385" y1="190" x1="385" id="SvgjsLine1094"></line><line stroke-width="2" stroke="#000000" y2="190" x2="387" y1="190" x1="373" id="SvgjsLine1095"></line></g><g id="note_15"><ellipse cy="220" cx="400" ry="5.5" rx="5.5" id="SvgjsEllipse1097"></ellipse><line stroke-width="2" stroke="#000000" y2="190" x2="405" y1="220" x1="405" id="SvgjsLine1098"></line></g><g id="bar_4"><line stroke-width="2" stroke="#000000" y2="240" x2="410" y1="200" x1="410" id="SvgjsLine1100"></line></g><g id="note_16"><ellipse cy="215" cx="420" ry="5.5" rx="5.5" id="SvgjsEllipse1102"></ellipse><line stroke-width="2" stroke="#000000" y2="185" x2="425" y1="215" x1="425" id="SvgjsLine1103"></line></g><g id="note_17"><ellipse cy="200" cx="440" ry="5.5" rx="5.5" id="SvgjsEllipse1105"></ellipse><line stroke-width="2" stroke="#000000" y2="170" x2="445" y1="200" x1="445" id="SvgjsLine1106"></line></g><defs id="SvgjsDefs1001"></defs></svg>