<svg xmlns:xlink="http://www.w3.org/1999/xlink" height="1000" width="1000" version="1.1" xmlns="http://www.w3.org/2000/svg" id="SvgjsSvg1000"><text y="35" x="450" text-anchor="middle" font-size="40" font-family="Arial" id="SvgjsText1006"><tspan x="450" dy="52" id="SvgjsTspan1007">test</tspan></text><text y="93.60000038146973" x="900" text-anchor="middle" font-size="18" font-family="Arial" id="SvgjsText1008"><tspan x="900" dy="23.400000000000002" id="SvgjsTspan1009">test</tspan></text><line stroke-width="2" stroke="#000000" y2="200" x2="1000" y1="200" x1="0" id="line_0"></line><line stroke-width="2" stroke="#000000" y2="210" x2="1000" y1="210" x1="0" id="line_1"></line><line stroke-width="2" stroke="#000000" y2="220" x2="1000" y1="220" x1="0" id="line_2"></line><line stroke-width="2" stroke="#000000" y2="230" x2="1000" y1="230" x1="0" id="line_3"></line><line stroke-width="2" stroke="#000000" y2="240" x2="1000" y1="240" x1="0" id="line_4"></line><path d="M24.493924197126034 229.0540839883306C19.128773266467363 228.59630418796414 16.279576592487217 221.74063012344487 18.93114391455299 217.2925682925065C21.73883691773557 210.63413932153534 31.72594542627064 208.5013320956698 36.704811216124995 213.95723204383256C40.7020927765455 217.86735853264537 41.044482049860164 224.55047045279198 37.83128345308131 229.0474611823705C33.67418055019772 235.50426752820908 24.360699561192007 236.7573566640949 17.966052656958254 233.0544320812036C12.935210272205609 230.37698006075803 9.58608592921206 224.77613559648955 10.04140195534768 219.03424947560035C10.31508809311407 212.05534149267046 14.692190212412015 206.00731447101938 19.85086254701514 201.63581800318258C24.127741043012804 197.41940745853023 28.97576309190856 193.5279438711544 31.979118948307473 188.24337041300993C33.10288630774426 185.51072645927766 35.007285840003874 179.9181718041759 31.116391105699677 178.75632896132703C27.947924703442936 179.62051472538334 27.191229566496304 183.32517412178126 25.642909453659968 185.80190200356833C23.85497787877324 189.17902069871732 23.187008752049394 193.18813892371492 24.314279643649343 196.8850660623011C26.812215196740283 212.70363056345838 28.975122661298087 228.57558437409585 31.00965769360596 244.4585498239946C31.332690893528763 248.83502658163758 28.03467668048995 253.45171002507476 23.43209777943872 253.55252133764105C19.330885632655054 253.95650496672775 14.463759915372748 250.65046653486354 15.170670990452322 246.1542367875398C15.76943593885619 242.45660894252097 21.34614747082651 240.60637477095187 23.555972128459814 243.97698367730737C26.593850962002136 246.77793332288553 22.78654372408141 250.8201881811168 21.867329901629887 252.27758975069918C24.4109997347864 253.72630406741249 27.313039468608338 251.46333873806537 28.70191496287009 249.3636756799113C30.098656451924 246.49033477191628 29.49668935046776 243.11816622866235 29.397076019866915 240.02701110280645C28.264749493683098 227.19437144372648 26.104117441411915 214.48015870623976 24.37199374336967 201.72098773989777C23.646785189024968 196.5443984171569 20.95174769746359 191.4979671978976 22.08493315411323 186.18344419061626C22.842336531970318 182.66806406114378 24.90097435866528 179.54035541638538 27.225790216028543 176.85781762344487C29.452009897289997 173.82996717981484 34.376642516153936 174.60332481435046 35.13548497926513 178.44804261802005C37.16708156524254 185.46939043061047 34.06845977191631 192.73387772446716 29.746434685119084 198.2142006823223C25.474762513260657 204.03125452068667 19.824838460796627 208.7102066556563 15.820700525605162 214.72550767311216C11.170405776834798 220.9781861799595 14.560204998071185 231.4594057406693 22.310764056321716 233.239629544797C27.116186167904345 234.83735322837305 33.67717173787253 232.943856085447 35.08628483942522 227.6002537612113C36.50514002073487 223.44686535586845 35.098016021313526 217.77298919857267 30.533478698524448 216.3155537238403C25.880787985823133 214.71678274785418 20.43364686806831 218.83528652112065 20.85225491850707 223.7866326309191C20.997700477384512 226.0506603216318 22.77201725094028 227.78841227456843 24.493924197126034 229.0540839883306z " id="SvgjsPath1015"></path><text y="221" x="70" text-anchor="middle" font-size="28" font-family="Arial" id="SvgjsText1016"><tspan x="70" dy="0" id="SvgjsTspan1017">4</tspan></text><text y="241" x="70" text-anchor="middle" font-size="28" font-family="Arial" id="SvgjsText1018"><tspan x="70" dy="0" id="SvgjsTspan1019">4</tspan></text><g id="note_0"><ellipse cy="225" cx="100" ry="5.5" rx="5.5" id="SvgjsEllipse1021"></ellipse><line stroke-width="2" stroke="#000000" y2="195" x2="105" y1="225" x1="105" id="SvgjsLine1022"></line></g><g id="note_1"><ellipse cy="215" cx="120" ry="5.5" rx="5.5" id="SvgjsEllipse1024"></ellipse><line stroke-width="2" stroke="#000000" y2="185" x2="125" y1="215" x1="125" id="SvgjsLine1025"></line></g><g id="note_2"><ellipse cy="225" cx="140" ry="5.5" rx="5.5" id="SvgjsEllipse1027"></ellipse><line stroke-width="2" stroke="#000000" y2="195" x2="145" y1="225" x1="145" id="SvgjsLine1028"></line></g><g id="note_3"><ellipse cy="230" cx="160" ry="5.5" rx="5.5" id="SvgjsEllipse1030"></ellipse><line stroke-width="2" stroke="#000000" y2="200" x2="165" y1="230" x1="165" id="SvgjsLine1031"></line></g><line stroke-width="2" stroke="#000000" y2="240" x2="170" y1="200" x1="170" id="SvgjsLine1032"></line><g id="note_4"><ellipse cy="200" cx="180" ry="5.5" rx="5.5" id="SvgjsEllipse1034"></ellipse><line stroke-width="2" stroke="#000000" y2="170" x2="185" y1="200" x1="185" id="SvgjsLine1035"></line></g><g id="note_5"><ellipse cy="195" cx="200" ry="5.5" rx="5.5" id="SvgjsEllipse1037"></ellipse><line stroke-width="2" stroke="#000000" y2="165" x2="205" y1="195" x1="205" id="SvgjsLine1038"></line></g><g id="note_6"><ellipse cy="230" cx="220" ry="5.5" rx="5.5" id="SvgjsEllipse1040"></ellipse><line stroke-width="2" stroke="#000000" y2="200" x2="225" y1="230" x1="225" id="SvgjsLine1041"></line></g><g id="note_7"><ellipse cy="225" cx="240" ry="5.5" rx="5.5" id="SvgjsEllipse1043"></ellipse><line stroke-width="2" stroke="#000000" y2="195" x2="245" y1="225" x1="245" id="SvgjsLine1044"></line></g><line stroke-width="2" stroke="#000000" y2="240" x2="250" y1="200" x1="250" id="SvgjsLine1045"></line><g id="note_8"><ellipse cy="220" cx="260" ry="5.5" rx="5.5" id="SvgjsEllipse1047"></ellipse><line stroke-width="2" stroke="#000000" y2="190" x2="265" y1="220" x1="265" id="SvgjsLine1048"></line></g><g id="note_9"><ellipse cy="220" cx="280" ry="5.5" rx="5.5" id="SvgjsEllipse1050"></ellipse><line stroke-width="2" stroke="#000000" y2="190" x2="285" y1="220" x1="285" id="SvgjsLine1051"></line></g><g id="note_10"><ellipse cy="225" cx="300" ry="5.5" rx="5.5" id="SvgjsEllipse1053"></ellipse><line stroke-width="2" stroke="#000000" y2="195" x2="305" y1="225" x1="305" id="SvgjsLine1054"></line></g><g id="note_11"><ellipse cy="220" cx="320" ry="5.5" rx="5.5" id="SvgjsEllipse1056"></ellipse><line stroke-width="2" stroke="#000000" y2="190" x2="325" y1="220" x1="325" id="SvgjsLine1057"></line></g><line stroke-width="2" stroke="#000000" y2="240" x2="330" y1="200" x1="330" id="SvgjsLine1058"></line><g id="note_12"><ellipse cy="220" cx="340" ry="5.5" rx="5.5" id="SvgjsEllipse1060"></ellipse><line stroke-width="2" stroke="#000000" y2="190" x2="345" y1="220" x1="345" id="SvgjsLine1061"></line></g><g id="note_13"><ellipse cy="215" cx="360" ry="5.5" rx="5.5" id="SvgjsEllipse1063"></ellipse><line stroke-width="2" stroke="#000000" y2="185" x2="365" y1="215" x1="365" id="SvgjsLine1064"></line></g><g id="note_14"><ellipse cy="215" cx="380" ry="5.5" rx="5.5" id="SvgjsEllipse1066"></ellipse><line stroke-width="2" stroke="#000000" y2="185" x2="385" y1="215" x1="385" id="SvgjsLine1067"></line></g><g id="note_15"><ellipse cy="215" cx="400" ry="5.5" rx="5.5" id="SvgjsEllipse1069"></ellipse><line stroke-width="2" stroke="#000000" y2="185" x2="405" y1="215" x1="405" id="SvgjsLine1070"></line></g><line stroke-width="2" stroke="#000000" y2="240" x2="410" y1="200" x1="410" id="SvgjsLine1071"></line><g id="note_16"><ellipse cy="215" cx="420" ry="5.5" rx="5.5" id="SvgjsEllipse1073"></ellipse><line stroke-width="2" stroke="#000000" y2="185" x2="425" y1="215" x1="425" id="SvgjsLine1074"></line></g><g id="note_17"><ellipse cy="225" cx="440" ry="5.5" rx="5.5" id="SvgjsEllipse1076"></ellipse><line stroke-width="2" stroke="#000000" y2="195" x2="445" y1="225" x1="445" id="SvgjsLine1077"></line></g><g id="note_18"><ellipse cy="215" cx="460" ry="5.5" rx="5.5" id="SvgjsEllipse1079"></ellipse><line stroke-width="2" stroke="#000000" y2="185" x2="465" y1="215" x1="465" id="SvgjsLine1080"></line></g><g id="note_19"><ellipse cy="210" cx="480" ry="5.5" rx="5.5" id="SvgjsEllipse1082"></ellipse><line stroke-width="2" stroke="#000000" y2="180" x2="485" y1="210" x1="485" id="SvgjsLine1083"></line></g><line stroke-width="2" stroke="#000000" y2="240" x2="490" y1="200" x1="490" id="SvgjsLine1084"></line><g id="note_20"><ellipse cy="205" cx="500" ry="5.5" rx="5.5" id="SvgjsEllipse1086"></ellipse><line stroke-width="2" stroke="#000000" y2="175" x2="505" y1="205" x1="505" id="SvgjsLine1087"></line></g><g id="note_21"><ellipse cy="230" cx="520" ry="5.5" rx="5.5" id="SvgjsEllipse1089"></ellipse><line stroke-width="2" stroke="#000000" y2="200" x2="525" y1="230" x1="525" id="SvgjsLine1090"></line></g><g id="note_22"><ellipse cy="215" cx="540" ry="5.5" rx="5.5" id="SvgjsEllipse1092"></ellipse><line stroke-width="2" stroke="#000000" y2="185" x2="545" y1="215" x1="545" id="SvgjsLine1093"></line></g><g id="note_23"><ellipse cy="205" cx="560" ry="5.5" rx="5.5" id="SvgjsEllipse1095"></ellipse><line stroke-width="2" stroke="#000000" y2="175" x2="565" y1="205" x1="565" id="SvgjsLine1096"></line></g><line stroke-width="2" stroke="#000000" y2="240" x2="570" y1="200" x1="570" id="SvgjsLine1097"></line><g id="note_24"><ellipse cy="225" cx="580" ry="5.5" rx="5.5" id="SvgjsEllipse1099"></ellipse><line stroke-width="2" stroke="#000000" y2="195" x2="585" y1="225" x1="585" id="SvgjsLine1100"></line></g><g id="note_25"><ellipse cy="245" cx="600" ry="5.5" rx="5.5" id="SvgjsEllipse1102"></ellipse><line stroke-width="2" stroke="#000000" y2="215" x2="605" y1="245" x1="605" id="SvgjsLine1103"></line></g><g id="note_26"><ellipse cy="245" cx="620" ry="5.5" rx="5.5" id="SvgjsEllipse1105"></ellipse><line stroke-width="2" stroke="#000000" y2="215" x2="625" y1="245" x1="625" id="SvgjsLine1106"></line></g><g id="note_27"><ellipse cy="185" cx="640" ry="5.5" rx="5.5" id="SvgjsEllipse1108"></ellipse><line stroke-width="2" stroke="#000000" y2="155" x2="645" y1="185" x1="645" id="SvgjsLine1109"></line></g><line stroke-width="2" stroke="#000000" y2="240" x2="650" y1="200" x1="650" id="SvgjsLine1110"></line><g id="note_28"><ellipse cy="180" cx="660" ry="5.5" rx="5.5" id="SvgjsEllipse1112"></ellipse><line stroke-width="2" stroke="#000000" y2="150" x2="665" y1="180" x1="665" id="SvgjsLine1113"></line></g><g id="note_29"><ellipse cy="185" cx="680" ry="5.5" rx="5.5" id="SvgjsEllipse1115"></ellipse><line stroke-width="2" stroke="#000000" y2="155" x2="685" y1="185" x1="685" id="SvgjsLine1116"></line></g><g id="note_30"><ellipse cy="210" cx="700" ry="5.5" rx="5.5" id="SvgjsEllipse1118"></ellipse><line stroke-width="2" stroke="#000000" y2="180" x2="705" y1="210" x1="705" id="SvgjsLine1119"></line></g><g id="note_31"><ellipse cy="215" cx="720" ry="5.5" rx="5.5" id="SvgjsEllipse1121"></ellipse><line stroke-width="2" stroke="#000000" y2="185" x2="725" y1="215" x1="725" id="SvgjsLine1122"></line></g><line stroke-width="2" stroke="#000000" y2="240" x2="730" y1="200" x1="730" id="SvgjsLine1123"></line><g id="note_32"><ellipse cy="220" cx="740" ry="5.5" rx="5.5" id="SvgjsEllipse1125"></ellipse><line stroke-width="2" stroke="#000000" y2="190" x2="745" y1="220" x1="745" id="SvgjsLine1126"></line></g><g id="note_33"><ellipse cy="190" cx="760" ry="5.5" rx="5.5" id="SvgjsEllipse1128"></ellipse><line stroke-width="2" stroke="#000000" y2="160" x2="765" y1="190" x1="765" id="SvgjsLine1129"></line></g><g id="note_34"><ellipse cy="190" cx="780" ry="5.5" rx="5.5" id="SvgjsEllipse1131"></ellipse><line stroke-width="2" stroke="#000000" y2="160" x2="785" y1="190" x1="785" id="SvgjsLine1132"></line></g><g id="note_35"><ellipse cy="215" cx="800" ry="5.5" rx="5.5" id="SvgjsEllipse1134"></ellipse><line stroke-width="2" stroke="#000000" y2="185" x2="805" y1="215" x1="805" id="SvgjsLine1135"></line></g><line stroke-width="2" stroke="#000000" y2="240" x2="810" y1="200" x1="810" id="SvgjsLine1136"></line><g id="note_36"><ellipse cy="225" cx="820" ry="5.5" rx="5.5" id="SvgjsEllipse1138"></ellipse><line stroke-width="2" stroke="#000000" y2="195" x2="825" y1="225" x1="825" id="SvgjsLine1139"></line></g><g id="note_37"><ellipse cy="215" cx="840" ry="5.5" rx="5.5" id="SvgjsEllipse1141"></ellipse><line stroke-width="2" stroke="#000000" y2="185" x2="845" y1="215" x1="845" id="SvgjsLine1142"></line></g><g id="note_38"><ellipse cy="215" cx="860" ry="5.5" rx="5.5" id="SvgjsEllipse1144"></ellipse><line stroke-width="2" stroke="#000000" y2="185" x2="865" y1="215" x1="865" id="SvgjsLine1145"></line></g><g id="note_39"><ellipse cy="215" cx="880" ry="5.5" rx="5.5" id="SvgjsEllipse1147"></ellipse><line stroke-width="2" stroke="#000000" y2="185" x2="885" y1="215" x1="885" id="SvgjsLine1148"></line></g><line stroke-width="2" stroke="#000000" y2="240" x2="890" y1="200" x1="890" id="SvgjsLine1149"></line><g id="note_40"><ellipse cy="215" cx="900" ry="5.5" rx="5.5" id="SvgjsEllipse1151"></ellipse><line stroke-width="2" stroke="#000000" y2="185" x2="905" y1="215" x1="905" id="SvgjsLine1152"></line></g><g id="note_41"><ellipse cy="225" cx="920" ry="5.5" rx="5.5" id="SvgjsEllipse1154"></ellipse><line stroke-width="2" stroke="#000000" y2="195" x2="925" y1="225" x1="925" id="SvgjsLine1155"></line></g><g id="note_42"><ellipse cy="225" cx="940" ry="5.5" rx="5.5" id="SvgjsEllipse1157"></ellipse><line stroke-width="2" stroke="#000000" y2="195" x2="945" y1="225" x1="945" id="SvgjsLine1158"></line></g><g id="note_43"><ellipse cy="220" cx="960" ry="5.5" rx="5.5" id="SvgjsEllipse1160"></ellipse><line stroke-width="2" stroke="#000000" y2="190" x2="965" y1="220" x1="965" id="SvgjsLine1161"></line></g><line stroke-width="2" stroke="#000000" y2="240" x2="970" y1="200" x1="970" id="SvgjsLine1162"></line><line stroke-width="2" stroke="#000000" y2="400" x2="1000" y1="400" x1="0" id="line_0"></line><line stroke-width="2" stroke="#000000" y2="410" x2="1000" y1="410" x1="0" id="line_1"></line><line stroke-width="2" stroke="#000000" y2="420" x2="1000" y1="420" x1="0" id="line_2"></line><line stroke-width="2" stroke="#000000" y2="430" x2="1000" y1="430" x1="0" id="line_3"></line><line stroke-width="2" stroke="#000000" y2="440" x2="1000" y1="440" x1="0" id="line_4"></line><path d="M24.493924197126034 429.0540839883306C19.128773266467363 428.59630418796417 16.279576592487217 421.7406301234449 18.93114391455299 417.29256829250653C21.73883691773557 410.6341393215354 31.72594542627064 408.5013320956698 36.704811216124995 413.95723204383256C40.7020927765455 417.86735853264537 41.044482049860164 424.55047045279196 37.83128345308131 429.0474611823705C33.67418055019772 435.5042675282091 24.360699561192007 436.7573566640949 17.966052656958254 433.0544320812036C12.935210272205609 430.376980060758 9.58608592921206 424.77613559648955 10.04140195534768 419.03424947560035C10.31508809311407 412.05534149267044 14.692190212412015 406.0073144710194 19.85086254701514 401.6358180031826C24.127741043012804 397.41940745853026 28.97576309190856 393.52794387115443 31.979118948307473 388.2433704130099C33.10288630774426 385.51072645927763 35.007285840003874 379.9181718041759 31.116391105699677 378.75632896132703C27.947924703442936 379.6205147253834 27.191229566496304 383.3251741217813 25.642909453659968 385.80190200356833C23.85497787877324 389.1790206987173 23.187008752049394 393.1881389237149 24.314279643649343 396.8850660623011C26.812215196740283 412.7036305634584 28.975122661298087 428.57558437409585 31.00965769360596 444.4585498239946C31.332690893528763 448.8350265816376 28.03467668048995 453.45171002507476 23.43209777943872 453.55252133764105C19.330885632655054 453.9565049667277 14.463759915372748 450.65046653486354 15.170670990452322 446.1542367875398C15.76943593885619 442.456608942521 21.34614747082651 440.6063747709519 23.555972128459814 443.9769836773074C26.593850962002136 446.77793332288553 22.78654372408141 450.8201881811168 21.867329901629887 452.2775897506992C24.4109997347864 453.72630406741246 27.313039468608338 451.4633387380654 28.70191496287009 449.3636756799113C30.098656451924 446.4903347719163 29.49668935046776 443.11816622866235 29.397076019866915 440.02701110280645C28.264749493683098 427.1943714437265 26.104117441411915 414.48015870623976 24.37199374336967 401.72098773989774C23.646785189024968 396.5443984171569 20.95174769746359 391.4979671978976 22.08493315411323 386.1834441906162C22.842336531970318 382.6680640611438 24.90097435866528 379.5403554163854 27.225790216028543 376.8578176234449C29.452009897289997 373.82996717981484 34.376642516153936 374.60332481435046 35.13548497926513 378.44804261802005C37.16708156524254 385.4693904306105 34.06845977191631 392.73387772446716 29.746434685119084 398.2142006823223C25.474762513260657 404.0312545206867 19.824838460796627 408.7102066556563 15.820700525605162 414.72550767311213C11.170405776834798 420.9781861799595 14.560204998071185 431.4594057406693 22.310764056321716 433.239629544797C27.116186167904345 434.83735322837305 33.67717173787253 432.943856085447 35.08628483942522 427.6002537612113C36.50514002073487 423.44686535586845 35.098016021313526 417.77298919857265 30.533478698524448 416.3155537238403C25.880787985823133 414.71678274785415 20.43364686806831 418.8352865211207 20.85225491850707 423.7866326309191C20.997700477384512 426.05066032163177 22.77201725094028 427.78841227456843 24.493924197126034 429.0540839883306z " id="SvgjsPath1168"></path><text y="421" x="70" text-anchor="middle" font-size="28" font-family="Arial" id="SvgjsText1169"><tspan x="70" dy="0" id="SvgjsTspan1170">4</tspan></text><text y="441" x="70" text-anchor="middle" font-size="28" font-family="Arial" id="SvgjsText1171"><tspan x="70" dy="0" id="SvgjsTspan1172">4</tspan></text><g id="note_0"><ellipse cy="390" cx="100" ry="5.5" rx="5.5" id="SvgjsEllipse1174"></ellipse><line stroke-width="2" stroke="#000000" y2="360" x2="105" y1="390" x1="105" id="SvgjsLine1175"></line></g><g id="note_1"><ellipse cy="395" cx="120" ry="5.5" rx="5.5" id="SvgjsEllipse1177"></ellipse><line stroke-width="2" stroke="#000000" y2="365" x2="125" y1="395" x1="125" id="SvgjsLine1178"></line></g><g id="note_2"><ellipse cy="420" cx="140" ry="5.5" rx="5.5" id="SvgjsEllipse1180"></ellipse><line stroke-width="2" stroke="#000000" y2="390" x2="145" y1="420" x1="145" id="SvgjsLine1181"></line></g><g id="note_3"><ellipse cy="420" cx="160" ry="5.5" rx="5.5" id="SvgjsEllipse1183"></ellipse><line stroke-width="2" stroke="#000000" y2="390" x2="165" y1="420" x1="165" id="SvgjsLine1184"></line></g><line stroke-width="2" stroke="#000000" y2="440" x2="170" y1="400" x1="170" id="SvgjsLine1185"></line><g id="note_4"><ellipse cy="420" cx="180" ry="5.5" rx="5.5" id="SvgjsEllipse1187"></ellipse><line stroke-width="2" stroke="#000000" y2="390" x2="185" y1="420" x1="185" id="SvgjsLine1188"></line></g><g id="note_5"><ellipse cy="405" cx="200" ry="5.5" rx="5.5" id="SvgjsEllipse1190"></ellipse><line stroke-width="2" stroke="#000000" y2="375" x2="205" y1="405" x1="205" id="SvgjsLine1191"></line></g><g id="note_6"><ellipse cy="400" cx="220" ry="5.5" rx="5.5" id="SvgjsEllipse1193"></ellipse><line stroke-width="2" stroke="#000000" y2="370" x2="225" y1="400" x1="225" id="SvgjsLine1194"></line></g><defs id="SvgjsDefs1001"></defs></svg>